<?xml version="1.0" encoding="UTF-8" standalone="no"?>
<!-- Created with Inkscape (http://www.inkscape.org/) -->

<svg
   xmlns:dc="http://purl.org/dc/elements/1.1/"
   xmlns:cc="http://creativecommons.org/ns#"
   xmlns:rdf="http://www.w3.org/1999/02/22-rdf-syntax-ns#"
   xmlns:svg="http://www.w3.org/2000/svg"
   xmlns="http://www.w3.org/2000/svg"
   xmlns:sodipodi="http://sodipodi.sourceforge.net/DTD/sodipodi-0.dtd"
   xmlns:inkscape="http://www.inkscape.org/namespaces/inkscape"
   width="96"
   height="96"
   viewBox="0 0 25.399999 25.400002"
   version="1.1"
   id="svg2289"
   inkscape:version="0.92.4 (unknown)"
   sodipodi:docname="food0.svg">
  <defs
     id="defs2283" />
  <sodipodi:namedview
     id="base"
     pagecolor="#ffffff"
     bordercolor="#666666"
     borderopacity="1.0"
     inkscape:pageopacity="0.0"
     inkscape:pageshadow="2"
     inkscape:zoom="4.0983151"
     inkscape:cx="-25.091692"
     inkscape:cy="10.455897"
     inkscape:document-units="mm"
     inkscape:current-layer="layer1"
     showgrid="false"
     fit-margin-top="0"
     fit-margin-left="0"
     fit-margin-right="0"
     fit-margin-bottom="0"
     inkscape:window-width="1920"
     inkscape:window-height="1032"
     inkscape:window-x="0"
     inkscape:window-y="24"
     inkscape:window-maximized="1"
     units="px" />
  <metadata
     id="metadata2286">
    <rdf:RDF>
      <cc:Work
         rdf:about="">
        <dc:format>image/svg+xml</dc:format>
        <dc:type
           rdf:resource="http://purl.org/dc/dcmitype/StillImage" />
        <dc:title></dc:title>
      </cc:Work>
    </rdf:RDF>
  </metadata>
  <g
     inkscape:label="Layer 1"
     inkscape:groupmode="layer"
     id="layer1"
     transform="translate(7.2448584,9.432872)">
    <path
       style="fill:#e86a17;stroke:none;stroke-width:0.6243363"
       inkscape:connector-curvature="0"
       id="path1806"
       d="M 15.375932,3.5554102 Q 15.313499,4.960167 14.90768,6.6146587 13.565357,10.610411 10.911927,13.295056 9.5071707,14.45008 7.2595598,14.075478 L 4.824648,13.856971 2.4209532,14.075478 Q 0.17334258,14.45008 -1.2314142,13.295056 -3.8848437,10.610411 -5.227167,6.6146587 -5.6329854,4.960167 -5.6954192,3.5241933 -5.5081183,0.27764438 -3.4478081,-1.6265816 -1.449932,-3.4995906 0.92254596,-2.4070021 2.7331214,-1.5953647 4.4188296,-1.5017142 H 4.7934314 5.3865508 5.4802 l 1.2798897,-0.1873009 0.3433849,-0.1248681 1.6232746,-0.5931196 q 2.3724778,-1.0925885 4.3703548,0.7804205 2.091526,1.93544263 2.278827,5.1819918 M 11.629914,1.0580647 Q 10.849494,0.27764438 9.6632547,0.27764438 8.601883,0.3088608 7.7902458,1.026848 L 7.7590298,1.058064 Q 7.228344,1.5887501 7.4156449,2.5564712 7.6029458,3.5241927 8.3833661,4.3046132 9.1950033,5.1162511 10.162724,5.303552 11.130446,5.4596459 11.661131,4.9289501 l 0.03122,-0.031219 q 0.749204,-0.749202 0.717987,-1.8730074 0.03122,-1.1550221 -0.78042,-1.9666595" />
    <path
       style="fill:#b47b41;stroke:none;stroke-width:0.6243363"
       inkscape:connector-curvature="0"
       id="path1808"
       d="m 4.4188293,-2.750387 -2.903164,-5.0259075 2.74708,-1.2486727 0.6243363,3.4026331 -0.2497345,0.5619027 q -0.2809513,0.8116372 -0.1560844,1.342323 0.062433,0.3746018 0.312168,0.6243365 l 0.5931196,0.312168 v 0.031216 H 4.7934307 4.4188289" />
    <path
       style="fill:#2bc26a;stroke:none;stroke-width:0.6243363"
       inkscape:connector-curvature="0"
       id="path1810"
       d="m 4.8870816,-5.6223341 q 0.4682523,-1.030155 1.4359736,-1.9978764 l 0.1248681,-0.124868 q 0.5619027,-0.5619027 1.4359734,-0.5619027 0.874071,0 1.4984074,0.6243365 0.5931195,0.5931193 0.6243359,1.4984072 l -0.09365,0.6243363 -0.5306859,-0.874071 q -0.6243364,-0.6243363 -1.4984074,-0.6243363 -0.8740707,0 -1.4359734,0.5619027 l -0.1248681,0.1248681 q -0.9677213,0.9677212 -1.8417921,2.6534293 -0.124868,-0.5306858 0.1560845,-1.342323 l 0.2497345,-0.5619027" />
    <path
       style="fill:#27ae60;stroke:none;stroke-width:0.6243363"
       inkscape:connector-curvature="0"
       id="path1812"
       d="M 9.9129893,-5.5599005 9.444737,-4.7482634 9.3198697,-4.6233953 Q 8.2272812,-3.5308068 7.1034758,-3.0625545 L 6.7600906,-2.9376865 5.4802012,-2.7503856 5.3865519,-2.781602 4.7934323,-3.09377 Q 4.5436979,-3.3435047 4.4812643,-3.7181065 5.355335,-5.4038146 6.3230564,-6.3715358 l 0.1248681,-0.1248681 q 0.5619027,-0.5619027 1.4359734,-0.5619027 0.874071,0 1.4984073,0.6243363 l 0.5306859,0.874071" />
    <path
       style="fill:#f37725;stroke:none;stroke-width:0.6243363"
       inkscape:connector-curvature="0"
       id="path1814"
       d="m 11.629914,1.0580647 q 0.811638,0.8116374 0.780421,1.9666594 0.03122,1.1238055 -0.717987,1.87301 l -0.03122,0.031219 Q 11.130445,5.4596368 10.162724,5.3035547 9.1950029,5.116242 8.3833657,4.3046157 7.6029451,3.5241952 7.4156442,2.5564738 7.2283433,1.5887526 7.7590294,1.0580665 l 0.031216,-0.031216 q 0.8116374,-0.71798694 1.8730091,-0.7492036 1.1862395,0 1.9666595,0.7804203" />
    <path
       style="fill:#ef975c;stroke:none;stroke-width:0.6243363"
       inkscape:connector-curvature="0"
       id="path1816"
       d="m 15.375932,3.5554102 q -0.1873,-3.24654916 -2.278827,-5.1819918 -1.997877,-1.873009 -4.3703549,-0.7804205 l -1.6232743,0.5931196 -0.343385,0.1248681 -1.2798896,0.1873009 H 5.3865519 4.7934325 4.4188305 Q 2.7331224,-1.5953628 0.92254712,-2.4070014 -1.4499308,-3.4995899 -3.447807,-1.6265808 -5.5081172,0.27764509 -5.6954181,3.524194 -5.9139354,-0.59642587 -3.447807,-2.8752536 -1.4499308,-4.7482627 0.92254712,-3.6556739 2.7331224,-2.8440367 4.4188305,-2.7503863 h 0.374602 0.5931194 0.093649 l 1.2798896,-0.1873009 0.343385,-0.124868 1.6232743,-0.5931194 1.0613719,-0.3433851 q 1.7481423,-0.3121681 3.3089833,1.1238054 2.497345,2.27882772 2.278827,6.4306645" />
  </g>
</svg>
