<?xml version="1.0" encoding="UTF-8" standalone="no"?>
<!-- Created with Inkscape (http://www.inkscape.org/) -->

<svg
   xmlns:dc="http://purl.org/dc/elements/1.1/"
   xmlns:cc="http://creativecommons.org/ns#"
   xmlns:rdf="http://www.w3.org/1999/02/22-rdf-syntax-ns#"
   xmlns:svg="http://www.w3.org/2000/svg"
   xmlns="http://www.w3.org/2000/svg"
   xmlns:sodipodi="http://sodipodi.sourceforge.net/DTD/sodipodi-0.dtd"
   xmlns:inkscape="http://www.inkscape.org/namespaces/inkscape"
   width="96"
   height="96"
   viewBox="0 0 25.399999 25.400002"
   version="1.1"
   id="svg2289"
   inkscape:version="0.92.4 (unknown)"
   sodipodi:docname="food3.svg">
  <defs
     id="defs2283" />
  <sodipodi:namedview
     id="base"
     pagecolor="#ffffff"
     bordercolor="#666666"
     borderopacity="1.0"
     inkscape:pageopacity="0.0"
     inkscape:pageshadow="2"
     inkscape:zoom="4.0983151"
     inkscape:cx="-25.091692"
     inkscape:cy="10.455897"
     inkscape:document-units="mm"
     inkscape:current-layer="layer1"
     showgrid="false"
     fit-margin-top="0"
     fit-margin-left="0"
     fit-margin-right="0"
     fit-margin-bottom="0"
     inkscape:window-width="1920"
     inkscape:window-height="1032"
     inkscape:window-x="0"
     inkscape:window-y="24"
     inkscape:window-maximized="1"
     units="px" />
  <metadata
     id="metadata2286">
    <rdf:RDF>
      <cc:Work
         rdf:about="">
        <dc:format>image/svg+xml</dc:format>
        <dc:type
           rdf:resource="http://purl.org/dc/dcmitype/StillImage" />
        <dc:title></dc:title>
      </cc:Work>
    </rdf:RDF>
  </metadata>
  <g
     inkscape:label="Layer 1"
     inkscape:groupmode="layer"
     id="layer1"
     transform="translate(7.2448584,9.432872)">
    <path
       style="fill:#e6ebff;stroke:none;stroke-width:0.4315761"
       inkscape:connector-curvature="0"
       id="path1944"
       d="M -4.0377279,10.287514 Q -4.1887793,10.006989 -4.080885,9.575413 l 0.9926245,-3.6683971 q 0.2157882,-0.8847311 1.1005192,-0.6473642 l 2.69735111,0.7336794 0.0215785,0.1078944 0.15105138,0.668943 0.0863158,0.1726304 H 0.92539843 L -1.9877407,6.1228043 q -0.884731,-0.237367 -1.1005191,0.6473642 L -4.0377273,10.287514 M -1.2756407,2.1307246 Q -1.6209015,1.5912545 -1.0814314,1.0302055 l 5.0062834,-5.027862 q 0.6689431,-0.6473642 1.3163073,0 l 1.7047261,1.7047258 h -0.02158 L 6.6437796,-2.1418793 6.5358869,-2.0771423 6.4064141,-1.969248 5.2411585,-3.1345036 q -0.6473642,-0.6473642 -1.3163073,0 l -5.0062834,5.027862 -0.1942093,0.2373668" />
    <path
       style="fill:#d6daec;stroke:none;stroke-width:0.4315761"
       inkscape:connector-curvature="0"
       id="path1946"
       d="m -1.2756407,2.1307246 0.1942093,-0.2373668 5.0062834,-5.027862 q 0.6689431,-0.6473642 1.3163073,0 l 1.1652555,1.1652556 q -0.086316,0.021578 -0.1510513,0.086316 L 5.9748389,-1.7103029 Q 4.3995858,-0.69609899 3.2343302,0.53389301 2.349599,1.5265181 1.7022348,2.5838796 1.1627648,3.5117683 0.90381908,4.3533418 L -1.1030101,2.3465127 -1.2756407,2.1307246 M 13.074266,6.899641 13.419527,8.2159482 Q 13.549008,8.6691031 13.397947,8.9496277 13.225316,9.2301522 12.79374,9.359625 L 5.9101023,11.193824 Q 5.0037924,11.409612 4.7664256,10.546459 L 4.4427435,9.3164673 5.6295779,9.3596244 Q 8.4348222,9.3164673 11.391119,7.8706874 L 11.628486,7.7196357 12.167956,7.4391111 12.44848,7.2880596 12.772163,7.0938503 13.074266,6.8996411 M 2.0690746,8.4533151 1.356974,11.042772 Q 1.119607,11.927503 0.23487601,11.690136 L -3.4335213,10.697511 Q -3.8866762,10.568038 -4.0377279,10.287514 L -3.0882605,6.7701682 Q -2.8724723,5.885437 -1.9877413,6.122804 L 0.92539777,6.9427986 1.1627648,7.4175324 Q 1.5080256,8.0217389 2.0690746,8.4533151 M 6.6869397,3.770714 8.0032467,3.425453 Q 8.9095565,3.1665073 9.1685022,4.0943961 L 9.4274479,5.1301788 Q 9.6863936,6.0149098 8.7800837,6.2738555 L 8.6506027,6.3170126 5.7806212,7.0506919 Q 4.8958901,7.3096376 4.6369445,6.4033277 L 4.3779988,5.367545 Q 4.1190531,4.4612351 5.0469418,4.2022894 L 6.6869315,3.7707133" />
    <path
       style="fill:#b6bac9;stroke:none;stroke-width:0.4315761"
       inkscape:connector-curvature="0"
       id="path1948"
       d="M 6.6869397,3.770714 5.04695,4.2022901 Q 4.1190612,4.4612358 4.3780069,5.3675456 L 4.6369526,6.4033284 Q 4.8958983,7.3096383 5.7806293,7.0506926 L 8.6506109,6.3170133 Q 9.5569207,7.0506926 10.700598,7.46069 l 0.388418,0.1510514 0.53947,0.1078943 -0.237367,0.1510513 Q 8.4348222,9.316467 5.6295778,9.3596247 L 4.4427434,9.3164676 Q 2.9753845,9.1222581 2.0690746,8.4533151 1.5080256,8.0217389 1.1627648,7.4175324 L 0.92539777,6.9427986 h 0.0431571 L 0.88223907,6.7701682 0.7311877,6.1012251 0.70960916,5.9933308 Q 0.66645209,5.5401759 0.75276623,5.0654421 0.7959233,4.6986024 0.90381761,4.3533414 1.1627633,3.511768 1.7022334,2.5838792 2.3495976,1.5265178 3.2343288,0.53389261 4.3995843,-0.69609939 5.9748371,-1.7103032 l 0.2805246,-0.1726306 q 0.064736,-0.064737 0.1510513,-0.086316 l 0.1294729,-0.1078943 0.1078943,-0.064737 0.2805242,-0.1510514 h 0.02158 l 0.3021027,-0.1942093 q 1.1652556,-0.6257855 2.3952484,-0.668943 l 0.3236813,0.021579 1.2947282,0.1942093 q 2.222617,0.5826278 3.366294,2.56787791 Q 15.491092,1.138098 15.383198,2.7996661 15.275297,1.6128337 14.627941,0.49073591 13.484264,-1.4945145 11.261647,-2.0771422 L 9.9669186,-2.271352 9.6432373,-2.2929305 Q 8.4132445,-2.2497735 7.247989,-1.6239876 L 6.9458862,-1.4297784 6.4711521,-1.904512 6.2553639,-1.3866206 6.1258911,-0.93346569 6.0611555,-0.56662599 Q 5.8885251,0.42599911 5.9964195,1.3970454 6.1043138,2.6054586 6.6869417,3.7707142" />
    <path
       style="fill:#5f6169;stroke:none;stroke-width:0.4315761"
       inkscape:connector-curvature="0"
       id="path1950"
       d="m 11.844275,-0.45873219 q 0.517891,0.1294728 0.776837,0.6042066 0.258946,0.453155 0.151045,1.01420389 Q 12.599525,1.655991 12.146371,1.9365153 11.671637,2.2170399 11.175324,2.0659882 10.614275,1.9365153 10.35533,1.4833604 10.096384,1.0086268 10.247429,0.44757771 q 0.129465,-0.4963125 0.604207,-0.7768371 0.453154,-0.2805244 0.992624,-0.1294728" />
    <path
       style="fill:#adb1bf;stroke:none;stroke-width:0.4315761"
       inkscape:connector-curvature="0"
       id="path1952"
       d="m 11.844275,-0.45873219 q -0.539472,-0.1510514 -0.992626,0.1294728 -0.474734,0.2805246 -0.604207,0.7768371 -0.151045,0.56104909 0.107901,1.03578269 0.258946,0.4531549 0.819996,0.5826278 0.496311,0.1510514 0.971045,-0.1294729 0.453156,-0.2805243 0.625786,-0.776837 0.107901,-0.56104889 -0.151045,-1.01420389 -0.258946,-0.4747338 -0.776837,-0.6042066 M 15.383212,2.7996677 15.189003,3.8354504 Q 14.671112,5.777543 13.074279,6.899641 L 12.772176,7.0938503 12.448493,7.2880596 12.167969,7.4391111 11.628499,7.7196356 11.089029,7.6117417 10.700611,7.46069 Q 9.5569207,7.0506926 8.6506109,6.3170133 l 0.129481,-0.043157 Q 9.6864017,6.0149098 9.4274561,5.1301788 L 9.1685104,4.0943961 Q 8.9095647,3.1665073 8.0032548,3.425453 L 6.6869479,3.770714 Q 6.1043197,2.6054584 5.9964256,1.3970453 5.8885313,0.42599901 6.0611612,-0.56662619 l 0.064736,-0.3668397 0.1294729,-0.45315491 0.2157881,-0.5178914 0.4747341,0.4747337 0.3021028,-0.1942093 Q 8.4132502,-2.2497731 9.643243,-2.2929307 l 0.3236813,0.021579 1.2947287,0.1942093 q 2.222617,0.5826278 3.366294,2.56787811 0.647364,1.12209789 0.755258,2.30893229" />
  </g>
</svg>
