<?xml version="1.0" encoding="UTF-8" standalone="no"?>
<!-- Created with Inkscape (http://www.inkscape.org/) -->

<svg
   xmlns:dc="http://purl.org/dc/elements/1.1/"
   xmlns:cc="http://creativecommons.org/ns#"
   xmlns:rdf="http://www.w3.org/1999/02/22-rdf-syntax-ns#"
   xmlns:svg="http://www.w3.org/2000/svg"
   xmlns="http://www.w3.org/2000/svg"
   xmlns:sodipodi="http://sodipodi.sourceforge.net/DTD/sodipodi-0.dtd"
   xmlns:inkscape="http://www.inkscape.org/namespaces/inkscape"
   width="96"
   height="96"
   viewBox="0 0 25.399999 25.400002"
   version="1.1"
   id="svg2289"
   inkscape:version="0.92.4 (unknown)"
   sodipodi:docname="food1.svg">
  <defs
     id="defs2283" />
  <sodipodi:namedview
     id="base"
     pagecolor="#ffffff"
     bordercolor="#666666"
     borderopacity="1.0"
     inkscape:pageopacity="0.0"
     inkscape:pageshadow="2"
     inkscape:zoom="4.0983151"
     inkscape:cx="-25.091692"
     inkscape:cy="10.455897"
     inkscape:document-units="mm"
     inkscape:current-layer="layer1"
     showgrid="false"
     fit-margin-top="0"
     fit-margin-left="0"
     fit-margin-right="0"
     fit-margin-bottom="0"
     inkscape:window-width="1920"
     inkscape:window-height="1032"
     inkscape:window-x="0"
     inkscape:window-y="24"
     inkscape:window-maximized="1"
     units="px" />
  <metadata
     id="metadata2286">
    <rdf:RDF>
      <cc:Work
         rdf:about="">
        <dc:format>image/svg+xml</dc:format>
        <dc:type
           rdf:resource="http://purl.org/dc/dcmitype/StillImage" />
        <dc:title></dc:title>
      </cc:Work>
    </rdf:RDF>
  </metadata>
  <g
     inkscape:label="Layer 1"
     inkscape:groupmode="layer"
     id="layer1"
     transform="translate(7.2448584,9.432872)">
    <path
       style="fill:#aa743d;stroke:none;stroke-width:0.47728351"
       inkscape:connector-curvature="0"
       id="path1852"
       d="m 10.633461,8.4991137 q -2.1477755,0.9545671 -4.772835,0.9545671 -4.2716875,0 -7.2785736,-2.553467 L 0.96847003,7.1865839 V 6.0888319 Q -1.1315775,5.921783 -3.2316251,4.8478947 -3.9714144,3.7024143 -4.2577846,2.4137488 L -4.4009696,1.4114534 -4.4248335,0.88644142 -4.3532401,1.22054 q 0.405691,1.1932088 2.8159729,2.0761833 l 0.1193212,0.047728 q 3.0068861,1.0977521 7.2785736,1.0977521 4.2478234,0 7.2785744,-1.0977521 l 0.143194,-0.047728 Q 14.523332,2.8433039 15.239257,2.2944279 15.883591,1.7932802 16.074504,1.22054 l 0.0716,-0.33409858 -0.02387,0.52501198 -0.119328,0.8829745 -0.02387,0.1193212 Q 15.811999,3.2489952 15.45403,4.012649 13.186933,6.3274739 10.633466,7.0672635 V 8.499114 M 7.9368104,-1.9295309 q 1.8852696,0.1909134 3.3648496,0.7159253 2.267097,0.81138187 2.267097,1.95686233 V 0.7671206 L 13.473294,1.22054 Q 13.091472,0.38529372 11.301658,-0.25903903 9.822079,-0.78405079 7.9368093,-0.9749643 L 5.860626,-1.0704216 5.31175,-1.0465577 3.8321711,-0.9749643 Q 1.8991729,-0.80791538 0.39572983,-0.25903903 -1.3702193,0.38529372 -1.728182,1.22054 L -1.8475032,0.7671206 V 0.7432567 q 0,-1.14548046 2.24323263,-1.9568623 1.50344307,-0.5488761 3.43644137,-0.7159253 l 1.4795788,-0.071593 0.548876,-0.023864 2.0761833,0.095457" />
    <path
       style="fill:#c48647;stroke:none;stroke-width:0.47728351"
       inkscape:connector-curvature="0"
       id="path1854"
       d="m 7.9368093,-1.9295312 q 2.9352937,0.2147776 5.2023907,1.02615943 2.028455,0.71592527 2.935293,1.16934467 l 0.0716,0.47728347 V 0.88644142 L 16.074493,1.22054 q -0.190913,0.5727402 -0.835245,1.0738879 -0.715925,0.548876 -1.956863,1.0022954 l -0.143194,0.047728 q -3.030742,1.0977521 -7.278565,1.0977521 -4.2716875,0 -7.2785736,-1.0977521 L -1.5372688,3.2967233 Q -3.9475508,2.4137488 -4.3532417,1.22054 L -4.4248351,0.88644142 V 0.74325637 L -4.3532417,0.2659729 Q -3.4464031,-0.1874465 -1.417948,-0.90337177 0.84914863,-1.7386179 3.8321708,-1.9295312 1.8991725,-1.7624823 0.39572943,-1.2136059 -1.8475032,-0.40222409 -1.8475032,0.74325637 v 0.0238639 L -1.728182,1.2205396 q 0.2863701,0.6681969 1.43185058,1.1932088 l 0.69206125,0.2863701 0.5727402,0.1909134 Q 2.2571355,3.2728587 3.8321711,3.4160438 L 5.860626,3.5115011 7.9129453,3.4160438 10.728918,2.8910319 11.301658,2.7001185 12.017583,2.4137484 12.28009,2.2944272 q 0.930702,-0.4772836 1.193208,-1.0738879 l 0.09546,-0.45341942 V 0.743256 q 0,-1.14548045 -2.267097,-1.9568623 -1.479579,-0.5250119 -3.3648487,-0.7159253" />
    <path
       style="fill:#d7c69f;stroke:none;stroke-width:0.47728351"
       inkscape:connector-curvature="0"
       id="path1856"
       d="M 13.473298,1.22054 Q 13.210792,1.8171443 12.28009,2.2944279 L 12.017583,2.4137491 11.301658,2.7001192 10.728918,2.8910326 7.9129453,3.4160445 5.860626,3.5115018 3.8321711,3.4160445 Q 2.2571355,3.2728595 0.96847003,2.8910326 L 0.39572983,2.7001192 -0.29633142,2.4137491 Q -1.4418119,1.8887372 -1.728182,1.2205404 -1.3702193,0.38529408 0.39572983,-0.25903867 1.8991729,-0.80791466 3.8321711,-0.97496394 l 1.4795789,-0.0715935 0.548876,-0.023864 2.0761833,0.0954573 q 1.8852697,0.19091352 3.3648487,0.71592527 1.789814,0.64433275 2.17164,1.47957907 M 11.182337,0.71939267 q 0,-0.31023435 -0.477283,-0.52501193 L 9.607302,-0.02039721 q -0.644333,0 -1.1216165,0.21477758 -0.4534194,0.21477759 -0.4534194,0.52501194 0,0.31023419 0.4534194,0.52501179 L 9.607302,1.4591816 10.705054,1.2444041 Q 11.182337,1.0296265 11.182337,0.71939231 M 8.891376,2.1512429 q 0,-0.1909136 -0.3102339,-0.3340986 L 7.8652168,1.6978231 7.1254274,1.8171443 Q 6.8390573,1.9603293 6.8390573,2.1512429 l 0.047728,0.143185 0.2386418,0.167049 0.7397893,0.143185 0.7159253,-0.143185 0.2625063,-0.167049 0.04773,-0.143185 M 6.6481438,0.83871313 q 0,-0.23864182 -0.3818267,-0.40569093 L 5.3833425,0.28983714 H 5.3117491 L 4.476503,0.4330222 q -0.3579627,0.16704893 -0.3579627,0.40569093 0,0.23864187 0.3579627,0.38182687 l 0.8352461,0.1670489 h 0.071593 L 6.2663171,1.22054 Q 6.6481438,1.077355 6.6481438,0.83871313 M 3.0446533,0.6716642 Q 2.4241846,0.38529408 1.5650743,0.38529408 q -0.85911037,0 -1.47957887,0.28637012 -0.62046849,0.28637011 -0.62046849,0.6920612 0,0.4295552 0.62046849,0.7159253 0.6204685,0.2863701 1.47957887,0.2863701 0.8591103,0 1.479579,-0.2863701 0.6204685,-0.2863701 0.6204685,-0.7159253 0,-0.40569109 -0.6204685,-0.6920612" />
    <path
       style="fill:#c2b28e;stroke:none;stroke-width:0.47728351"
       inkscape:connector-curvature="0"
       id="path1858"
       d="m 11.182337,0.71939231 q 0,0.31023419 -0.477283,0.52501179 L 9.607302,1.4591816 8.4856855,1.2444041 Q 8.0322661,1.0296265 8.0322661,0.71939231 q 0,-0.31023435 0.4534194,-0.52501194 0.4772835,-0.21477758 1.1216165,-0.21477758 l 1.097752,0.21477758 q 0.477283,0.21477759 0.477283,0.52501194 M 6.6481438,0.83871349 q 0,0.23864181 -0.3818267,0.38182691 L 5.3833425,1.3875893 H 5.3117491 L 4.476503,1.2205404 Q 4.1185403,1.0773553 4.1185403,0.83871349 q 0,-0.23864182 0.3579627,-0.40569093 L 5.3117491,0.2898375 h 0.071593 l 0.882975,0.14318506 Q 6.6481438,0.60007149 6.6481438,0.83871349 M 8.891376,2.1512432 8.843649,2.2944283 8.5811428,2.4614772 7.8652175,2.6046623 7.125428,2.4614772 6.8867862,2.2944283 6.8390584,2.1512432 q 0,-0.1909135 0.2863701,-0.3340985 L 7.865218,1.6978235 8.5811433,1.8171447 Q 8.891378,1.9603297 8.891378,2.1512432 M 3.0446533,0.6716642 q 0.6204685,0.28637011 0.6204685,0.6920612 0,0.4295552 -0.6204685,0.7159253 -0.6204687,0.2863701 -1.479579,0.2863701 -0.85911037,0 -1.47957887,-0.2863701 -0.62046849,-0.2863701 -0.62046849,-0.7159253 0,-0.40569109 0.62046849,-0.6920612 0.6204685,-0.28637012 1.47957887,-0.28637012 0.8591103,0 1.479579,0.28637012" />
    <path
       style="fill:#e09e5a;stroke:none;stroke-width:0.47728351"
       inkscape:connector-curvature="0"
       id="path1860"
       d="M 16.074493,0.2659729 Q 15.167655,-0.1874465 13.1392,-0.90337177 10.872103,-1.7147536 7.9368093,-1.9295312 l -2.0761833,-0.095457 -0.548876,0.023864 -1.4795789,0.071594 q -2.98302207,0.1909123 -5.2501187,1.02615843 -2.0284551,0.71592527 -2.9352937,1.16934467 0.4056909,-1.21707296 2.9352937,-2.1239116 2.8159728,-1.0261596 6.7296976,-1.0977522 h 0.548876 q 4.247823,0 7.278574,1.0977522 2.529603,0.90683864 2.935293,2.1239116" />
    <path
       style="fill:#9c6a38;stroke:none;stroke-width:0.47728351"
       inkscape:connector-curvature="0"
       id="path1862"
       d="m -3.2316251,4.8478947 q 2.1000476,1.0738879 4.20009513,1.2409372 v 1.097752 L -1.4179476,6.9002138 Q -2.5395639,5.9456469 -3.2316251,4.8478947 M 10.633461,8.4991137 V 7.0672631 Q 13.186928,6.3274736 15.454025,4.0126486 14.690372,5.5876842 13.1392,6.9002138 11.969856,7.8786451 10.633461,8.4991137" />
    <path
       style="fill:#e86a17;stroke:none;stroke-width:0.47728351"
       inkscape:connector-curvature="0"
       id="path1864"
       d="m 8.891376,-0.59313744 q 0.143185,0.26250588 0.45342,0.42955517 l 0.763653,0.11932118 q 0.45342,-0.11932118 0.668197,-0.50114769 l 0.09546,-0.21477759 0.357963,0.54887617 -0.73979,1.07388793 q -1.02616,0.33409837 -1.9329983,0 L 7.9845385,-0.02039685 8.891377,-0.59313708" />
    <path
       style="fill:#fca66c;stroke:none;stroke-width:0.47728351"
       inkscape:connector-curvature="0"
       id="path1866"
       d="m 8.891376,-0.59313744 1.479579,-0.95456706 0.501148,0.78751777 -0.09546,0.21477759 q -0.214777,0.38182687 -0.668197,0.50114769 L 9.344793,-0.16358227 Q 9.034558,-0.33063156 8.891373,-0.59313744" />
    <path
       style="fill:#b6814e;stroke:none;stroke-width:0.47728351"
       inkscape:connector-curvature="0"
       id="path1868"
       d="M -0.41565224,-0.23517479 -0.12928217,-1.1897419 3.8798994,0.00346703 3.3310234,0.79098484 -0.41565224,-0.23517479" />
    <path
       style="fill:#a06d3d;stroke:none;stroke-width:0.47728351"
       inkscape:connector-curvature="0"
       id="path1870"
       d="M -0.41565224,-0.23517479 3.3310234,0.79098484 2.877604,1.4353176 q -1.360258,0.5011477 -2.60119517,0 L -0.72588659,0.74325637 -0.43951648,-0.1874465 v -0.0477278 h 0.0238639" />
  </g>
</svg>
