<?xml version="1.0" encoding="UTF-8" standalone="no"?>
<!-- Created with Inkscape (http://www.inkscape.org/) -->

<svg
   xmlns:dc="http://purl.org/dc/elements/1.1/"
   xmlns:cc="http://creativecommons.org/ns#"
   xmlns:rdf="http://www.w3.org/1999/02/22-rdf-syntax-ns#"
   xmlns:svg="http://www.w3.org/2000/svg"
   xmlns="http://www.w3.org/2000/svg"
   xmlns:sodipodi="http://sodipodi.sourceforge.net/DTD/sodipodi-0.dtd"
   xmlns:inkscape="http://www.inkscape.org/namespaces/inkscape"
   width="567.38806mm"
   height="573.35962mm"
   viewBox="0 0 567.38806 573.35962"
   version="1.1"
   id="svg1945"
   inkscape:version="0.92.4 (unknown)"
   sodipodi:docname="island.svg">
  <defs
     id="defs1939" />
  <sodipodi:namedview
     id="base"
     pagecolor="#ffffff"
     bordercolor="#666666"
     borderopacity="1.0"
     inkscape:pageopacity="0.0"
     inkscape:pageshadow="2"
     inkscape:zoom="0.24748737"
     inkscape:cx="-461.80809"
     inkscape:cy="1119.219"
     inkscape:document-units="mm"
     inkscape:current-layer="layer1"
     showgrid="false"
     fit-margin-top="0"
     fit-margin-left="0"
     fit-margin-right="0"
     fit-margin-bottom="0"
     inkscape:window-width="1920"
     inkscape:window-height="1032"
     inkscape:window-x="0"
     inkscape:window-y="24"
     inkscape:window-maximized="1" />
  <metadata
     id="metadata1942">
    <rdf:RDF>
      <cc:Work
         rdf:about="">
        <dc:format>image/svg+xml</dc:format>
        <dc:type
           rdf:resource="http://purl.org/dc/dcmitype/StillImage" />
        <dc:title />
      </cc:Work>
    </rdf:RDF>
  </metadata>
  <g
     inkscape:label="Layer 1"
     inkscape:groupmode="layer"
     id="layer1"
     transform="translate(133.80357,117.60963)">
    <path
       style="opacity:1;vector-effect:none;fill:#dc9d59;fill-opacity:1;stroke:none;stroke-width:7.9375;stroke-linecap:round;stroke-linejoin:miter;stroke-miterlimit:4;stroke-dasharray:none;stroke-dashoffset:0;stroke-opacity:1;paint-order:fill markers stroke"
       d="m 407.17668,192.66745 c -44.4439,161.53936 -134.37867,263.08253 -279.04275,263.08253 -144.664083,0 -219.774081,-123.7963 -250.17764,-269.497 C -148.34552,60.208791 -114.39294,-176.41724 -3.3626775,-87.520346 56.192362,-39.837324 502.70176,-154.53566 407.17668,192.66745 Z"
       id="path2493"
       inkscape:connector-curvature="0"
       sodipodi:nodetypes="sssss" />
    <g
       id="g5427"
       transform="rotate(30,383.39613,380.91453)">
      <g
         transform="matrix(3.9110531,0,0,3.9110531,823.92504,406.78073)"
         id="g2950">
        <g
           id="use2948"
           transform="matrix(0.26458333,0,0,0.26458333,-133.80357,-117.60963)">
          <path
             d="M 80.05,368 H 80 q -4.05,0 -7.5,1.6 -2.75,1.25 -5.1,3.6 -0.45,0.4 -0.55,1.05 -0.15,0.6 0.15,1.15 l 0.5,1.25 -3.25,3.6 h -0.6 q -0.6,0 -1.1,0.35 -0.55,0.35 -0.75,0.9 -0.5,1.3 -0.85,2.65 -0.75,2.8 -0.9,5.95 -0.05,0.65 -0.05,1.35 v 40.8 q 0.05,2.15 0.25,4.2 0.15,1.65 0.4,3.3 0.65,5.2 2.1,10.05 v -0.05 q 2.4,8.45 7.15,15.7 3.3,5.05 7.75,9.55 v 0.05 q 0.6,0.6 1.45,0.85 0.9,0.25 1.8,0 0.9,-0.3 1.45,-0.9 4.55,-4.6 7.95,-9.85 0.35,-0.55 0.3,-1.25 l -0.95,-10.4 0.7,-1.55 q 0.25,-0.6 0.1,-1.2 L 90.2,449.5 q 0.5,-0.05 1,-0.3 0.45,-0.35 0.7,-0.9 l 0.3,-0.7 3.6,0.65 q 0.8,0.1 1.45,-0.3 0.65,-0.45 0.85,-1.25 0.8,-3.35 1.3,-6.9 v -0.05 q 0.2,-1.65 0.35,-3.3 0.05,-0.75 0.15,-1.5 0.05,-1.35 0.1,-2.7 v -40.8 q 0,-0.6 0,-1.2 v -0.05 q -0.1,-2.05 -0.4,-3.95 -0.15,-0.8 -0.75,-1.25 -0.65,-0.5 -1.4,-0.4 l -3.95,0.25 -1.15,-2 0.9,-4.8 q 0.05,-0.5 -0.1,-1 -0.2,-0.5 -0.55,-0.85 l -4.25,-3.75 -0.65,-2 Q 87.55,370 87.25,369.7 86.9,369.35 86.5,369.2 83.45,368 80.05,368 m -10.2,9 -1.05,-2.4 q 2.1,-2.05 4.55,-3.2 3.05,-1.45 6.65,-1.4 3.05,0 5.8,1.05 l 0.8,2.55 4.65,4.1 -0.45,2.55 -0.55,2.95 2.1,3.75 1.25,-0.05 4,-0.3 q 0.3,1.75 0.4,3.65 0,0.6 0,1.2 v 4.85 35.9 q -0.05,1.3 -0.1,2.6 -0.1,0.7 -0.15,1.45 -0.15,1.65 -0.35,3.25 -0.5,3.45 -1.25,6.75 l -5.15,-0.9 -0.9,2.15 h -2.35 l 0.75,3.65 -0.9,2.05 0.35,3.9 0.65,7 q -3.3,5.05 -7.7,9.5 -0.2,0.25 -0.55,0.35 -0.35,0.1 -0.7,0 -0.35,-0.1 -0.6,-0.35 -4.3,-4.35 -7.5,-9.25 -4.55,-7 -6.9,-15.15 -1.4,-4.65 -2.05,-9.7 -0.2,-1.6 -0.35,-3.25 -0.2,-2 -0.25,-4.05 v -40.75 q 0,-0.6 0.05,-1.2 0.1,-2.95 0.8,-5.55 0.35,-1.25 0.8,-2.45 h 1.45 z"
             id="path5339"
             inkscape:connector-curvature="0"
             style="fill:#6d4b27;stroke:none" />
          <path
             d="m 69,449.6 -4.35,-0.4 q 2.35,8.15 6.9,15.15 L 73.5,459.8 Q 70.75,454.95 69,449.6 m 28.75,-13.35 q 0.05,-0.75 0.15,-1.45 l -5.05,7.75 -1.85,2.8 5.15,0.9 q 0.75,-3.3 1.25,-6.75 0.2,-1.6 0.35,-3.25 M 94,391.45 v 2.5 l 4,2.35 v -4.85 q 0,-0.6 0,-1.2 -0.1,-1.9 -0.4,-3.65 l -4,0.3 q 0.3,1.6 0.4,3.35 0,0.6 0,1.2 m -21.55,-14.75 0.9,-5.3 q -2.45,1.15 -4.55,3.2 l 1.05,2.4 -4.75,5.25 h -1.45 q -0.45,1.2 -0.8,2.45 l 4.65,-1.15 q 1,-2.5 2.75,-4.65 1.05,-1.25 2.2,-2.2 z"
             id="path5341"
             inkscape:connector-curvature="0"
             style="fill:#5f7374;stroke:none" />
          <path
             d="m 74.6,457.2 -3,-7.35 -2.6,-0.25 q 1.75,5.35 4.5,10.2 l 1.1,-2.6 m 14.35,-70.35 2,3.4 1.65,2.85 1.4,0.85 v -2.5 q 0,-0.6 0,-1.2 -0.1,-1.75 -0.4,-3.35 l -1.25,0.05 -2.1,-3.75 -1.3,3.65 m -17.5,-4.25 1,-5.9 q -1.15,0.95 -2.2,2.2 -1.75,2.15 -2.75,4.65 z"
             id="path5343"
             inkscape:connector-curvature="0"
             style="fill:#4e5f5f;stroke:none" />
          <path
             d="M 72.25,399.75 H 69.4 v 12 h 2.85 v -12 m 0,18.5 H 69.4 v 12 h 2.85 v -12 m 18.35,0 h -2.85 v 12 h 2.85 v -12 m 0,-18.5 h -2.85 v 12 h 2.85 z"
             id="path5345"
             inkscape:connector-curvature="0"
             style="fill:#a7cacd;stroke:none" />
          <path
             d="M 69.4,418.25 H 66 v 12 h 3.4 v -12 m 0,-18.5 H 66 v 12 h 3.4 v -12 m 13.9,50.5 q 0,-1.35 -1,-2.35 -0.95,-0.95 -2.3,-0.95 -1.35,0 -2.35,0.95 -0.95,1 -0.95,2.35 0,1.35 0.95,2.3 1,1 2.35,1 1.35,0 2.3,-1 1,-0.95 1,-2.3 m -1.65,0 q 0,0.65 -0.5,1.15 -0.5,0.5 -1.15,0.5 -0.7,0 -1.2,-0.5 -0.45,-0.5 -0.45,-1.15 0,-0.7 0.45,-1.2 0.5,-0.45 1.2,-0.45 0.65,0 1.15,0.45 0.5,0.5 0.5,1.2 m 12.35,-32 h -3.4 v 12 H 94 v -12 m -3.4,-18.5 v 12 H 94 v -12 z"
             id="path5347"
             inkscape:connector-curvature="0"
             style="fill:#95b4b6;stroke:none" />
          <path
             d="m 88.6,464.1 -0.65,-7 q -3.15,6.3 -7.95,11.65 -3.75,-4.2 -6.5,-8.95 l -1.95,4.55 q 3.2,4.9 7.5,9.25 0.25,0.25 0.6,0.35 0.35,0.1 0.7,0 0.35,-0.1 0.55,-0.35 4.4,-4.45 7.7,-9.5 M 94,393.95 v 0.8 5 12 6.5 12 1.8 q -0.1,2.15 -0.25,4.2 -0.2,1.65 -0.4,3.25 -0.2,1.55 -0.5,3.05 l 5.05,-7.75 q 0.05,-1.3 0.1,-2.6 v -35.9 l -4,-2.35 m -28,0.8 v -3.3 q 0,-0.6 0.05,-1.2 0.15,-3.6 1.45,-6.7 l -4.65,1.15 q -0.7,2.6 -0.8,5.55 -0.05,0.6 -0.05,1.2 v 40.75 q 0.05,2.05 0.25,4.05 0.15,1.65 0.35,3.25 0.65,5.05 2.05,9.7 l 4.35,0.4 q -1.6,-4.85 -2.35,-10.1 -0.2,-1.6 -0.35,-3.25 -0.2,-2 -0.3,-4.05 v -1.95 -12 -6.5 -12 -5 M 80,374 h 0.05 q 5.65,0.05 9.75,4.95 v -0.05 q 0.55,0.65 1,1.35 l 0.45,-2.55 -4.65,-4.1 -0.8,-2.55 Q 83.05,370 80,370 q -3.6,-0.05 -6.65,1.4 l -0.9,5.3 q 3.3,-2.65 7.55,-2.7 z"
             id="path5349"
             inkscape:connector-curvature="0"
             style="fill:#b47b41;stroke:none" />
          <path
             d="m 93.35,439.5 q 0.2,-1.6 0.4,-3.25 H 66.3 q 0.15,1.65 0.35,3.25 z"
             id="path5351"
             inkscape:connector-curvature="0"
             style="fill:#a8733b;stroke:none" />
          <path
             d="m 92.85,442.55 q 0.3,-1.5 0.5,-3.05 h -26.7 q 0.75,5.25 2.35,10.1 l 2.6,0.25 3,7.35 -1.1,2.6 q 2.75,4.75 6.5,8.95 4.8,-5.35 7.95,-11.65 l -0.35,-3.9 0.9,-2.05 -0.75,-3.65 h 2.35 l 0.9,-2.15 1.85,-2.8 M 82.3,447.9 q 1,1 1,2.35 0,1.35 -1,2.3 -0.95,1 -2.3,1 -1.35,0 -2.35,-1 -0.95,-0.95 -0.95,-2.3 0,-1.35 0.95,-2.35 1,-0.95 2.35,-0.95 1.35,0 2.3,0.95 M 66,391.45 v 3.3 h 28 v -0.8 l -1.4,-0.85 -1.65,-2.85 h -24.9 q -0.05,0.6 -0.05,1.2 z"
             id="path5353"
             inkscape:connector-curvature="0"
             style="fill:#8e6132;stroke:none" />
          <path
             d="m 81.15,451.4 q 0.5,-0.5 0.5,-1.15 0,-0.7 -0.5,-1.2 -0.5,-0.45 -1.15,-0.45 -0.7,0 -1.2,0.45 -0.45,0.5 -0.45,1.2 0,0.65 0.45,1.15 0.5,0.5 1.2,0.5 0.65,0 1.15,-0.5 z"
             id="path5355"
             inkscape:connector-curvature="0"
             style="fill:#7e989a;stroke:none" />
          <path
             d="M 94,394.75 H 66 v 5 h 3.4 2.85 v 12 H 69.4 66 v 6.5 h 3.4 2.85 v 12 H 69.4 66 v 1.95 q 0.1,2.05 0.3,4.05 h 27.45 q 0.15,-2.05 0.25,-4.2 v -1.8 h -3.4 -2.85 v -12 H 90.6 94 v -6.5 h -3.4 -2.85 v -12 H 90.6 94 v -5 m -9.05,12.5 v 9.85 H 75.1 v -9.85 z"
             id="path5357"
             inkscape:connector-curvature="0"
             style="fill:#956635;stroke:none" />
          <path
             d="m 84.95,417.1 v -9.85 H 75.1 v 9.85 z"
             id="path5359"
             inkscape:connector-curvature="0"
             style="fill:#83592e;stroke:none" />
          <path
             d="m 72.45,376.7 -1,5.9 -3.95,0.95 q -1.3,3.1 -1.45,6.7 h 24.9 l -2,-3.4 1.3,-3.65 0.55,-2.95 q -0.45,-0.7 -1,-1.35 v 0.05 Q 85.7,374.05 80.05,374 H 80 q -4.25,0.05 -7.55,2.7 z"
             id="path5361"
             inkscape:connector-curvature="0"
             style="fill:#a3703a;stroke:none" />
        </g>
      </g>
      <g
         transform="matrix(3.9110531,0,0,3.9110531,823.92504,406.78073)"
         id="g2954">
        <g
           id="use2952"
           transform="matrix(0.26458333,0,0,0.26458333,-133.80357,-117.60963)">
          <path
             d="M 50.05,419.75 H 49 v 2.95 h 3.75 q -1.05,-0.55 -2.1,-1.15 -0.35,-0.9 -0.6,-1.8 m 60.95,0 h -1.1 q -0.2,0.9 -0.5,1.8 -1.05,0.6 -2.15,1.15 H 111 v -2.95 M 99.2,389 v 3.35 h 6.45 0.95 V 389 h -7.4 m -32.05,0 v 3.35 H 92.8 V 389 h -4.6 l -2,2 -2,-2 H 67.15 m -13.7,3.35 h 0.9 6.4 V 389 h -7.3 z"
             id="path5365"
             inkscape:connector-curvature="0"
             style="fill:#956635;stroke:none" />
          <path
             d="M 49.7,408.95 V 409 q -0.45,3.1 -0.3,5.65 -0.05,2.6 0.65,5.1 0.25,0.9 0.6,1.8 1.05,0.6 2.1,1.15 3.5,1.85 7.1,3.3 0.1,0 0.2,0.05 l -0.45,-3.1 -5.5,-1.85 -1.1,-6.35 -0.9,-5.15 q -0.6,-0.15 -1.2,-0.3 l -1.2,-0.35 m 50.9,0.25 h -2.3 l 3.15,14.2 q 0.35,-0.75 0.6,-1.6 l 3.1,1.95 q 0.5,-0.25 1.05,-0.45 0,-0.05 0.05,-0.05 l -2.85,-7 Q 102,412.7 100.6,409.2 M 91,417.05 H 87.7 L 81.45,431 h 0.05 q 1.8,-0.25 3.6,-0.55 3.55,-6.25 5.9,-13.4 z"
             id="path5367"
             inkscape:connector-curvature="0"
             style="fill:#5c7070;stroke:none" />
          <path
             d="m 47.75,408.5 q 0,0.1 0,0.2 -0.5,3.35 -0.35,6.1 0,1.75 0.3,3.45 -0.1,0.05 -0.1,0.1 -0.6,0.55 -0.6,1.4 v 2.95 q 0,0.85 0.6,1.45 0.55,0.55 1.4,0.55 h 3.25 q 3.5,1.8 7.1,3.2 H 59.3 q 0.35,0.15 0.75,0.3 l -0.2,-2.2 q -3.6,-1.45 -7.1,-3.3 H 49 v -2.95 h 1.05 q -0.7,-2.5 -0.65,-5.1 -0.15,-2.55 0.3,-5.65 l -1.95,-0.5 m 45.15,9.2 q 0.1,-0.35 0.2,-0.65 H 91 q -2.35,7.15 -5.9,13.4 -1.8,0.3 -3.6,0.55 l -0.9,2.1 q 0.5,-0.05 1.05,-0.1 h 0.05 q 1.85,-0.25 3.75,-0.55 0.45,-0.1 0.8,-0.35 0.35,-0.3 0.6,-0.65 Q 90.5,425 92.9,417.7 m 5.4,-8.5 h -2.05 l 3.25,14.6 q 0.15,0.65 0.65,1.1 0.45,0.4 1.1,0.5 0.6,0.05 1.2,-0.25 0.25,-0.2 0.5,-0.4 l 1.15,0.7 q 0.4,0.25 0.95,0.3 0.5,0.05 0.95,-0.2 0.45,-0.2 0.9,-0.4 l -0.7,-1.85 q -0.55,0.2 -1.05,0.45 l -3.1,-1.95 q -0.25,0.85 -0.6,1.6 z"
             id="path5369"
             inkscape:connector-curvature="0"
             style="fill:#465656;stroke:none" />
          <path
             d="m 81.5,431 h -0.05 q -0.75,0.1 -1.45,0.15 -4.3,-0.45 -8.65,-1.4 -2.95,-1.65 -2.95,-4.7 l -5.2,2.2 q -1.6,-0.55 -3.15,-1.2 -0.1,-0.05 -0.2,-0.05 l 0.2,2.2 q 1.2,0.5 2.5,0.95 0.7,0.25 1.45,-0.05 l 2.9,-1.25 q 0.9,2.2 3.5,3.65 0.25,0.15 0.55,0.2 4.45,1 8.85,1.45 0.2,0 0.4,0 0.2,0 0.4,-0.05 l 0.9,-2.1 m 14.9,-30.3 q -0.1,-0.4 -0.4,-0.6 -0.35,-0.25 -0.7,-0.2 -0.4,0.05 -0.65,0.35 -0.25,0.3 -0.25,0.7 v 1.6 q -0.5,3.4 -1.25,6.65 -0.9,4.05 -2.15,7.85 h 2.1 q 1.2,-3.8 2.1,-7.85 0.25,-1.2 0.5,-2.4 l 0.55,2.4 h 2.05 l -1.9,-8.5 m -33.05,-5.25 q -0.4,-0.1 -0.7,0.1 -0.35,0.2 -0.45,0.55 l -3.65,10.75 q -0.1,0.3 0,0.65 0.1,0.3 0.4,0.5 l 3.25,2.25 q 0.3,0.2 0.65,0.15 0.35,-0.05 0.65,-0.3 0.25,-0.3 0.25,-0.65 l 0.4,-13 q 0,-0.4 -0.2,-0.65 -0.25,-0.3 -0.6,-0.35 m -1.4,7.7 -0.15,4.4 -1.1,-0.75 1.25,-3.65 M 53.45,387 q -0.85,0 -1.4,0.6 -0.6,0.55 -0.6,1.4 v 3.35 q 0,0.65 0.35,1.15 -0.2,0.5 -0.35,1 -0.1,0.25 -0.15,0.5 -0.35,4.2 1.15,7.7 l -3.3,1.9 q -0.4,0.2 -0.65,0.6 -0.25,0.35 -0.35,0.75 -0.25,1.3 -0.4,2.55 l 1.95,0.5 v -0.05 q 0.15,-1.25 0.45,-2.6 l 4.95,-2.9 q -2.15,-3.65 -1.8,-8.3 0.5,-1.35 1.05,-2.8 h -0.9 V 389 h 7.3 6.4 17.05 l 2,2 2,-2 h 4.6 6.4 7.4 v 3.35 h -0.95 q 0.95,2.55 1.75,4.95 1.2,5.25 0,10.5 l 2.55,-1 q 0.8,4.45 0.6,7.85 0.1,2.6 -0.65,5.1 h 1.1 v 2.95 h -3.75 q -0.5,0.25 -1,0.55 -0.05,0 -0.05,0.05 l 0.7,1.85 q 0.1,-0.05 0.25,-0.1 0,-0.05 0.05,-0.05 0.25,-0.15 0.55,-0.3 H 111 q 0.85,0 1.45,-0.55 0.55,-0.6 0.55,-1.45 v -2.95 q 0,-0.85 -0.55,-1.4 l -0.1,-0.1 q 0.25,-1.75 0.2,-3.45 0,-0.05 0,-0.1 0.2,-3.6 -0.6,-8.25 -0.15,-0.6 -0.55,-1 -0.45,-0.45 -1,-0.6 -0.25,-0.05 -0.5,-0.05 0.35,-3.95 -0.55,-7.95 0,-0.1 -0.05,-0.15 -0.5,-1.55 -1.05,-3.15 0.35,-0.5 0.35,-1.2 V 389 q 0,-0.85 -0.55,-1.4 -0.6,-0.6 -1.45,-0.6 H 88.2 q -0.85,0 -1.4,0.6 l -0.6,0.55 -0.55,-0.55 Q 85.05,387 84.2,387 Z"
             id="path5371"
             inkscape:connector-curvature="0"
             style="fill:#b1a691;stroke:none" />
          <path
             d="M 92.8,392.35 H 67.15 l -3.95,34.9 5.2,-2.2 q 0,3.05 2.95,4.7 4.35,0.95 8.65,1.4 0.7,-0.05 1.45,-0.15 L 87.7,417.05 H 91 q 1.25,-3.8 2.15,-7.85 0.75,-3.25 1.25,-6.65 l -1.6,-10.2 m 12.85,0 H 99.2 l 10.2,29.2 q 0.3,-0.9 0.5,-1.8 0.75,-2.5 0.65,-5.1 0.2,-3.4 -0.6,-7.85 l -2.55,1 q 1.2,-5.25 0,-10.5 -0.8,-2.4 -1.75,-4.95 m -51.3,0 q -0.55,1.45 -1.05,2.8 -0.35,4.65 1.8,8.3 l -4.95,2.9 q -0.3,1.35 -0.45,2.6 l 1.2,0.35 q 0.6,0.15 1.2,0.3 l 0.9,5.15 7.75,-22.4 z"
             id="path5373"
             inkscape:connector-curvature="0"
             style="fill:#f3e5c8;stroke:none" />
          <path
             d="m 99.2,392.35 h -6.4 l 1.6,10.2 v -1.6 q 0,-0.4 0.25,-0.7 0.25,-0.3 0.65,-0.35 0.35,-0.05 0.7,0.2 0.3,0.2 0.4,0.6 l 1.9,8.5 h 2.3 q 1.4,3.5 2.8,7.05 l 2.85,7 q 0.5,-0.3 1,-0.55 1.1,-0.55 2.15,-1.15 l -10.2,-29.2 m -32.05,0 h -6.4 l -7.75,22.4 1.1,6.35 5.5,1.85 0.45,3.1 q 1.55,0.65 3.15,1.2 l 3.95,-34.9 m -4.5,3.2 q 0.3,-0.2 0.7,-0.1 0.35,0.05 0.6,0.35 0.2,0.25 0.2,0.65 l -0.4,13 q 0,0.35 -0.25,0.65 -0.3,0.25 -0.65,0.3 -0.35,0.05 -0.65,-0.15 L 58.95,408 q -0.3,-0.2 -0.4,-0.5 -0.1,-0.35 0,-0.65 L 62.2,396.1 q 0.1,-0.35 0.45,-0.55 z"
             id="path5375"
             inkscape:connector-curvature="0"
             style="fill:#fff1d2;stroke:none" />
          <path
             d="m 92.8,389 v 3.35 h 6.4 V 389 h -6.4 m -25.65,0 h -6.4 v 3.35 h 6.4 z"
             id="path5377"
             inkscape:connector-curvature="0"
             style="fill:#af783e;stroke:none" />
        </g>
      </g>
      <g
         transform="matrix(3.9110531,0,0,3.9110531,823.92504,406.78073)"
         id="g2958">
        <g
           id="use2956"
           transform="matrix(0.26458333,0,0,0.26458333,-133.80357,-117.60963)">
          <path
             d="m 80,377 q -3.95,0 -6.7,1.8 l -0.05,0.05 q -3.3,2.2 -3.25,5.4 0,1.1 0.4,2.05 l 0.05,0.05 q 0.25,0.6 0.65,1.2 l 1.95,3.6 q 0.45,1.45 2.15,2.55 2.05,1.3 4.8,1.3 2.8,0 4.75,-1.3 0.05,0 0.1,-0.05 1.6,-1.05 2.15,-2.4 l 2.2,-4 q 0,-0.05 0.05,-0.1 0.15,-0.3 0.3,-0.6 l 0.05,-0.05 q 0.05,-0.1 0.1,-0.2 0.3,-0.95 0.3,-2.05 0.1,-3.2 -3.25,-5.4 Q 83.95,377 80,377 m -5.7,3.45 q 2.4,-1.5 5.7,-1.5 3.35,0 5.7,1.5 2.35,1.6 2.35,3.8 0,0.7 -0.2,1.35 -0.05,0.05 -0.05,0.1 -0.15,0.3 -0.3,0.55 l -2.3,4.15 q -0.35,0.95 -1.45,1.65 -1.55,1 -3.75,1 -2.15,0 -3.8,-1 -1.05,-0.7 -1.35,-1.65 l -2.15,-4 q -0.3,-0.35 -0.5,-0.8 -0.25,-0.65 -0.25,-1.35 0,-2.2 2.35,-3.8 z"
             id="path5381"
             inkscape:connector-curvature="0"
             style="fill:#6d4b27;stroke:none" />
          <path
             d="m 74.3,387.95 q -1.05,-0.7 -1.6,-1.55 l 2.15,4 q 0.3,0.95 1.35,1.65 1.65,1 3.8,1 2.2,0 3.75,-1 1.1,-0.7 1.45,-1.65 l 2.3,-4.15 q -0.65,0.95 -1.8,1.7 -0.35,0.25 -0.7,0.4 -2.15,1.15 -5,1.15 -2.8,0 -4.95,-1.15 -0.4,-0.15 -0.75,-0.4 M 80,380.7 q -2.15,0 -3.8,1.05 -1.55,1 -1.55,2.5 0,0.45 0.2,0.9 0.1,0.3 0.3,0.55 0.4,0.55 1.05,1 0.25,0.15 0.5,0.3 1.45,0.75 3.3,0.75 1.95,0 3.35,-0.75 0.25,-0.15 0.5,-0.3 0.75,-0.45 1.15,-1.1 0.1,-0.2 0.2,-0.4 l 0.05,-0.05 q 0.15,-0.45 0.15,-0.9 0,-1.5 -1.55,-2.5 -1.6,-1.05 -3.85,-1.05 z"
             id="path5383"
             inkscape:connector-curvature="0"
             style="fill:#986835;stroke:none" />
          <path
             d="m 80,378.95 q -3.3,0 -5.7,1.5 -2.35,1.6 -2.35,3.8 0,0.7 0.25,1.35 0.2,0.45 0.5,0.8 0.55,0.85 1.6,1.55 0.35,0.25 0.75,0.4 2.15,1.15 4.95,1.15 2.85,0 5,-1.15 0.35,-0.15 0.7,-0.4 1.15,-0.75 1.8,-1.7 0.15,-0.25 0.3,-0.55 0,-0.05 0.05,-0.1 0.2,-0.65 0.2,-1.35 0,-2.2 -2.35,-3.8 -2.35,-1.5 -5.7,-1.5 m -3.8,2.8 q 1.65,-1.05 3.8,-1.05 2.25,0 3.85,1.05 1.55,1 1.55,2.5 0,0.45 -0.15,0.9 l -0.05,0.05 q -0.1,0.2 -0.2,0.4 -0.4,0.65 -1.15,1.1 -0.25,0.15 -0.5,0.3 -1.4,0.75 -3.35,0.75 -1.85,0 -3.3,-0.75 -0.25,-0.15 -0.5,-0.3 -0.65,-0.45 -1.05,-1 -0.2,-0.25 -0.3,-0.55 -0.2,-0.45 -0.2,-0.9 0,-1.5 1.55,-2.5 z"
             id="path5385"
             inkscape:connector-curvature="0"
             style="fill:#af783e;stroke:none" />
        </g>
      </g>
      <g
         transform="matrix(3.9110531,0,0,3.9110531,823.92504,406.78073)"
         id="g2962">
        <g
           id="use2960"
           transform="matrix(0.26458333,0,0,0.26458333,-133.80357,-117.60963)">
          <path
             d="M 80.05,363 H 80 q -1.25,0 -2.1,0.9 -0.9,0.85 -0.9,2.1 v 16.1 q 0,1.2 0.9,2.05 v 0.05 q 0.85,0.8 2.1,0.8 h 0.05 q 1.2,0 2.05,-0.8 l 0.05,-0.05 Q 83,383.3 83,382.1 V 366 q 0,-1.25 -0.85,-2.1 H 82.1 Q 81.25,363 80.05,363 M 79,366 q 0,-0.4 0.3,-0.7 0.3,-0.3 0.7,-0.3 0.4,0 0.7,0.3 0.3,0.3 0.3,0.7 v 16.05 q 0,0.4 -0.3,0.7 -0.3,0.3 -0.7,0.3 -0.4,0 -0.7,-0.3 -0.3,-0.3 -0.3,-0.7 z"
             id="path5389"
             inkscape:connector-curvature="0"
             style="fill:#b1a691;stroke:none" />
          <path
             d="M 79.3,365.3 Q 79,365.6 79,366 v 16.05 q 0,0.4 0.3,0.7 0.3,0.3 0.7,0.3 0.4,0 0.7,-0.3 0.3,-0.3 0.3,-0.7 V 366 q 0,-0.4 -0.3,-0.7 -0.3,-0.3 -0.7,-0.3 -0.4,0 -0.7,0.3 z"
             id="path5391"
             inkscape:connector-curvature="0"
             style="fill:#f3e5c8;stroke:none" />
        </g>
      </g>
    </g>
    <path
       sodipodi:nodetypes="sssss"
       inkscape:connector-curvature="0"
       id="path5429"
       d="M 364.46686,103.40373 C 358.12347,215.5706 313.49392,294.82558 218.66015,315.23622 123.82637,335.64687 57.121997,265.09011 16.634203,173.86642 -18.391374,94.949741 -29.519488,-64.95958 55.808272,-22.348937 101.57686,0.50679987 378.10096,-137.68106 364.46686,103.40373 Z"
       style="opacity:1;vector-effect:none;fill:#c18a4f;fill-opacity:1;stroke:none;stroke-width:5.3225379;stroke-linecap:round;stroke-linejoin:miter;stroke-miterlimit:4;stroke-dasharray:none;stroke-dashoffset:0;stroke-opacity:1;paint-order:fill markers stroke" />
  </g>
</svg>
