<?xml version="1.0" encoding="UTF-8" standalone="no"?>
<!-- Created with Inkscape (http://www.inkscape.org/) -->

<svg
   xmlns:dc="http://purl.org/dc/elements/1.1/"
   xmlns:cc="http://creativecommons.org/ns#"
   xmlns:rdf="http://www.w3.org/1999/02/22-rdf-syntax-ns#"
   xmlns:svg="http://www.w3.org/2000/svg"
   xmlns="http://www.w3.org/2000/svg"
   xmlns:sodipodi="http://sodipodi.sourceforge.net/DTD/sodipodi-0.dtd"
   xmlns:inkscape="http://www.inkscape.org/namespaces/inkscape"
   width="96"
   height="96"
   viewBox="0 0 25.399999 25.400002"
   version="1.1"
   id="svg2289"
   inkscape:version="0.92.4 (unknown)"
   sodipodi:docname="sun.svg">
  <defs
     id="defs2283" />
  <sodipodi:namedview
     id="base"
     pagecolor="#ffffff"
     bordercolor="#666666"
     borderopacity="1.0"
     inkscape:pageopacity="0.0"
     inkscape:pageshadow="2"
     inkscape:zoom="4.0983151"
     inkscape:cx="21.662731"
     inkscape:cy="15.844969"
     inkscape:document-units="mm"
     inkscape:current-layer="layer1"
     showgrid="false"
     fit-margin-top="0"
     fit-margin-left="0"
     fit-margin-right="0"
     fit-margin-bottom="0"
     inkscape:window-width="1920"
     inkscape:window-height="1032"
     inkscape:window-x="0"
     inkscape:window-y="24"
     inkscape:window-maximized="1"
     units="px" />
  <metadata
     id="metadata2286">
    <rdf:RDF>
      <cc:Work
         rdf:about="">
        <dc:format>image/svg+xml</dc:format>
        <dc:type
           rdf:resource="http://purl.org/dc/dcmitype/StillImage" />
        <dc:title></dc:title>
      </cc:Work>
    </rdf:RDF>
  </metadata>
  <g
     inkscape:label="Layer 1"
     inkscape:groupmode="layer"
     id="layer1"
     transform="translate(7.2448584,9.432872)">
    <g
       transform="matrix(0.99848337,0,0,0.94933006,-38.128372,-211.99148)"
       id="g2831">
      <g
         transform="scale(0.26458333)"
         id="use2829">
        <path
           style="fill:#ffa800;stroke:none"
           inkscape:connector-curvature="0"
           id="path4267"
           d="m 194.85,835.45 q -0.6,-0.8 -1.55,-1.1 l -9.35,-3.25 -5.9,-7.9 q -0.65,-0.85 -1.55,-1.15 -0.95,-0.3 -1.85,0 l -9.55,2.85 -9.45,-2.95 q -0.95,-0.3 -1.9,0 -0.95,0.3 -1.5,1.1 l -6,7.95 -9.4,3.2 q -1,0.3 -1.55,1.1 -0.55,0.8 -0.55,1.8 l -0.25,9.95 -5.7,8.05 q -0.55,0.75 -0.6,1.8 -0.05,1 0.6,1.8 l 5.7,8.15 0.1,9.95 q -0.05,0.95 0.5,1.75 0.65,0.8 1.6,1.1 l 9.35,3.25 5.95,8 q 0.6,0.75 1.55,1.05 0.9,0.3 1.85,0.1 l 9.5,-2.95 9.45,2.95 q 0.95,0.3 1.85,0 0.9,-0.3 1.55,-1.05 l 6.05,-7.95 9.35,-3.2 q 0.9,-0.3 1.5,-1.1 0.65,-0.85 0.65,-1.8 l 0.15,-9.85 5.8,-8.15 q 0.55,-0.8 0.5,-1.8 0,-1 -0.55,-1.8 l -5.65,-8.15 -0.15,-9.95 q -0.05,-1 -0.55,-1.8 m -4.9,8.95 q 5.25,10.3 1.65,21.35 -3.65,11 -14,16.25 -10.35,5.25 -21.35,1.6 -11,-3.6 -16.25,-14 -5.25,-10.35 -1.6,-21.35 3.6,-11.05 13.95,-16.25 10.35,-5.2 21.35,-1.6 11,3.65 16.25,14 z" />
        <path
           style="fill:#ffdd58;stroke:none"
           inkscape:connector-curvature="0"
           id="path4269"
           d="m 191.6,865.75 q 3.6,-11.05 -1.65,-21.35 -5.25,-10.35 -16.25,-14 -11,-3.6 -21.35,1.6 -10.35,5.2 -13.95,16.25 -3.65,11 1.6,21.35 5.25,10.4 16.25,14 11,3.65 21.35,-1.6 10.35,-5.25 14,-16.25 m -3.45,-20.45 q 4.9,9.6 1.55,19.8 -3.4,10.2 -13,15.1 -9.65,4.85 -19.85,1.5 -10.2,-3.35 -15.1,-13 h 0.05 q -4.9,-9.6 -1.5,-19.8 3.35,-10.2 12.95,-15.1 h -0.05 q 9.7,-4.85 19.9,-1.5 10.2,3.35 15.05,13 z" />
        <path
           style="fill:#ffcc00;stroke:none"
           inkscape:connector-curvature="0"
           id="path4271"
           d="m 189.7,865.1 q 3.35,-10.2 -1.55,-19.8 -4.85,-9.65 -15.05,-13 -10.2,-3.35 -19.9,1.5 h 0.05 q -9.6,4.9 -12.95,15.1 -3.4,10.2 1.5,19.8 h -0.05 q 4.9,9.65 15.1,13 10.2,3.35 19.85,-1.5 9.6,-4.9 13,-15.1 M 162,863.15 q 0,-1.3 1.05,-2.3 1,-0.85 2.45,-0.85 1.45,0 2.45,0.85 1.05,0.95 1.05,2.3 0,0.75 -0.3,1.35 -0.15,0.25 -0.35,0.35 -0.3,0.15 -0.55,0.15 h -4.6 q -0.35,0 -0.55,-0.15 -0.25,-0.15 -0.35,-0.35 -0.3,-0.65 -0.3,-1.35 m 9.7,-2.85 q -0.85,-0.85 -1.1,-2 1.6,-2.8 4.4,-4.4 1.2,0.2 2.05,1.05 1.1,1.05 1.05,2.65 0,1.55 -1.1,2.7 -1.1,1.1 -2.7,1.1 -1.5,-0.05 -2.6,-1.1 M 155,853.8 q 2.8,1.55 4.4,4.45 -0.2,1.15 -1.05,2 -1.1,1.05 -2.65,1.05 -1.6,0.05 -2.65,-1.05 -1.15,-1.15 -1.15,-2.75 0,-1.55 1.1,-2.6 0.85,-0.85 2,-1.1 z" />
        <path
           style="fill:#a68916;stroke:none"
           inkscape:connector-curvature="0"
           id="path4273"
           d="m 159.4,858.25 q -1.6,-2.9 -4.4,-4.45 -1.15,0.25 -2,1.1 -1.1,1.05 -1.1,2.6 0,1.6 1.15,2.75 1.05,1.1 2.65,1.05 1.55,0 2.65,-1.05 0.85,-0.85 1.05,-2 m 11.2,0.05 q 0.25,1.15 1.1,2 1.1,1.05 2.6,1.1 1.6,0 2.7,-1.1 1.1,-1.15 1.1,-2.7 0.05,-1.6 -1.05,-2.65 -0.85,-0.85 -2.05,-1.05 -2.8,1.6 -4.4,4.4 z" />
        <path
           style="fill:#ffffff;stroke:none"
           inkscape:connector-curvature="0"
           id="path4275"
           d="m 163.05,860.85 q -1.05,1 -1.05,2.3 0,0.7 0.3,1.35 0.1,0.2 0.35,0.35 0.2,0.15 0.55,0.15 h 4.6 q 0.25,0 0.55,-0.15 0.2,-0.1 0.35,-0.35 0.3,-0.6 0.3,-1.35 0,-1.35 -1.05,-2.3 -1,-0.85 -2.45,-0.85 -1.45,0 -2.45,0.85 z" />
      </g>
    </g>
  </g>
</svg>
