<?xml version="1.0" encoding="UTF-8" standalone="no"?>
<!-- Created with Inkscape (http://www.inkscape.org/) -->

<svg
   xmlns:dc="http://purl.org/dc/elements/1.1/"
   xmlns:cc="http://creativecommons.org/ns#"
   xmlns:rdf="http://www.w3.org/1999/02/22-rdf-syntax-ns#"
   xmlns:svg="http://www.w3.org/2000/svg"
   xmlns="http://www.w3.org/2000/svg"
   xmlns:sodipodi="http://sodipodi.sourceforge.net/DTD/sodipodi-0.dtd"
   xmlns:inkscape="http://www.inkscape.org/namespaces/inkscape"
   width="96"
   height="96"
   viewBox="0 0 25.399999 25.400002"
   version="1.1"
   id="svg2289"
   inkscape:version="0.92.4 (unknown)"
   sodipodi:docname="tool4.svg">
  <defs
     id="defs2283" />
  <sodipodi:namedview
     id="base"
     pagecolor="#ffffff"
     bordercolor="#666666"
     borderopacity="1.0"
     inkscape:pageopacity="0.0"
     inkscape:pageshadow="2"
     inkscape:zoom="4.0983151"
     inkscape:cx="-25.091692"
     inkscape:cy="10.455897"
     inkscape:document-units="mm"
     inkscape:current-layer="layer1"
     showgrid="false"
     fit-margin-top="0"
     fit-margin-left="0"
     fit-margin-right="0"
     fit-margin-bottom="0"
     inkscape:window-width="1920"
     inkscape:window-height="1032"
     inkscape:window-x="0"
     inkscape:window-y="24"
     inkscape:window-maximized="1"
     units="px" />
  <metadata
     id="metadata2286">
    <rdf:RDF>
      <cc:Work
         rdf:about="">
        <dc:format>image/svg+xml</dc:format>
        <dc:type
           rdf:resource="http://purl.org/dc/dcmitype/StillImage" />
        <dc:title></dc:title>
      </cc:Work>
    </rdf:RDF>
  </metadata>
  <g
     inkscape:label="Layer 1"
     inkscape:groupmode="layer"
     id="layer1"
     transform="translate(7.2448584,9.432872)">
    <g
       transform="matrix(0.4070764,0,0,0.4070764,-71.721786,-74.784424)"
       id="g3842">
      <path
         d="m 191.7,192.55 9.3,-9.6 -4.7,-4.85 -9.25,10.35 -2.8,-2.45 3.5,-3.5 -4.55,-3.75 q 9.55,-13.25 24.6,-9.5 7.75,10.35 -3.25,27.35 l -6.55,-5.85 -3.5,4.25 -2.8,-2.45"
         id="path1378"
         inkscape:connector-curvature="0"
         style="fill:#c7cce0;stroke:none" />
      <path
         d="m 191.7,192.55 -4.65,-4.1 9.25,-10.35 4.7,4.85 -9.3,9.6"
         id="path1380"
         inkscape:connector-curvature="0"
         style="fill:#d6daec;stroke:none" />
      <path
         d="m 191.7,192.55 -2,2.1 -4.75,-3.85 2.1,-2.35 4.65,4.1"
         id="path1382"
         inkscape:connector-curvature="0"
         style="fill:#aa753e;stroke:none" />
      <path
         d="m 189.7,194.65 -4,4.15 -1.7,-1.7 -9.65,10.5 1.3,1.55 -7.15,7.35 -2.3,-2 4.55,-4.55 -1.35,-1.65 15.55,-17.5 4.75,3.85"
         id="path1384"
         inkscape:connector-curvature="0"
         style="fill:#b47b41;stroke:none" />
      <path
         d="m 204.55,196.6 q 11,-17 3.25,-27.35 -15.05,-3.75 -24.6,9.5 l -1.2,-1 q 10.75,-15.3 28.25,-11.25 9.1,11.35 -5.25,30.5 l -0.45,-0.4"
         id="path1386"
         inkscape:connector-curvature="0"
         style="fill:#d4d9ec;stroke:none" />
      <path
         d="m 185.7,198.8 -10.05,10.35 -1.3,-1.55 9.65,-10.5 1.7,1.7 m -19.5,15.7 -1.35,-1.15 4.55,-5.05 1.35,1.65 -4.55,4.55"
         id="path1388"
         inkscape:connector-curvature="0"
         style="fill:#c2874a;stroke:none" />
    </g>
  </g>
</svg>
