<?xml version="1.0" encoding="UTF-8" standalone="no"?>
<!-- Created with Inkscape (http://www.inkscape.org/) -->

<svg
   xmlns:dc="http://purl.org/dc/elements/1.1/"
   xmlns:cc="http://creativecommons.org/ns#"
   xmlns:rdf="http://www.w3.org/1999/02/22-rdf-syntax-ns#"
   xmlns:svg="http://www.w3.org/2000/svg"
   xmlns="http://www.w3.org/2000/svg"
   xmlns:sodipodi="http://sodipodi.sourceforge.net/DTD/sodipodi-0.dtd"
   xmlns:inkscape="http://www.inkscape.org/namespaces/inkscape"
   width="96"
   height="96"
   viewBox="0 0 25.399999 25.400002"
   version="1.1"
   id="svg2289"
   inkscape:version="0.92.4 (unknown)"
   sodipodi:docname="tool2.svg">
  <defs
     id="defs2283" />
  <sodipodi:namedview
     id="base"
     pagecolor="#ffffff"
     bordercolor="#666666"
     borderopacity="1.0"
     inkscape:pageopacity="0.0"
     inkscape:pageshadow="2"
     inkscape:zoom="4.0983151"
     inkscape:cx="11.264712"
     inkscape:cy="10.943902"
     inkscape:document-units="mm"
     inkscape:current-layer="layer1"
     showgrid="false"
     fit-margin-top="0"
     fit-margin-left="0"
     fit-margin-right="0"
     fit-margin-bottom="0"
     inkscape:window-width="1920"
     inkscape:window-height="1032"
     inkscape:window-x="0"
     inkscape:window-y="24"
     inkscape:window-maximized="1"
     units="px" />
  <metadata
     id="metadata2286">
    <rdf:RDF>
      <cc:Work
         rdf:about="">
        <dc:format>image/svg+xml</dc:format>
        <dc:type
           rdf:resource="http://purl.org/dc/dcmitype/StillImage" />
        <dc:title></dc:title>
      </cc:Work>
    </rdf:RDF>
  </metadata>
  <g
     inkscape:label="Layer 1"
     inkscape:groupmode="layer"
     id="layer1"
     transform="translate(7.2448584,9.432872)">
    <g
       transform="translate(30.627832,-14.236725)"
       id="g2995"
       style="fill:#999999;opacity:0.6">
      <g
         id="g2975"
         style="fill:#999999">
        <path
           d="m -21.981795,11.765512 -1.534583,-0.701146 -1.785937,-0.806979 1.058333,-1.6404164 4.722812,2.3812504 -0.912812,1.468437 -1.547813,-0.701146 m -1.971145,0.06615 1.521354,0.833438 -1.997604,3.929062 -1.785938,0.912813 v -1.719792 l 2.262188,-3.955521"
           id="path2971"
           inkscape:connector-curvature="0"
           style="fill:#999999;stroke:none;stroke-width:0.26458332" />
        <path
           d="m -23.95294,11.831658 0.436562,-0.767292 1.534583,0.701146 -0.449791,0.899584 -1.521354,-0.833438"
           id="path2973"
           inkscape:connector-curvature="0"
           style="fill:#999999;stroke:none;stroke-width:0.26458332" />
      </g>
      <g
         id="g2981"
         transform="translate(4.4545745,5.2292831)"
         style="fill:#999999">
        <path
           style="fill:#999999;stroke:none;stroke-width:0.26458332"
           inkscape:connector-curvature="0"
           id="path2977"
           d="m -21.981795,11.765512 -1.534583,-0.701146 -1.785937,-0.806979 1.058333,-1.6404164 4.722812,2.3812504 -0.912812,1.468437 -1.547813,-0.701146 m -1.971145,0.06615 1.521354,0.833438 -1.997604,3.929062 -1.785938,0.912813 v -1.719792 l 2.262188,-3.955521" />
        <path
           style="fill:#999999;stroke:none;stroke-width:0.26458332"
           inkscape:connector-curvature="0"
           id="path2979"
           d="m -23.95294,11.831658 0.436562,-0.767292 1.534583,0.701146 -0.449791,0.899584 -1.521354,-0.833438" />
      </g>
      <g
         transform="translate(-8.0053224,3.0342754)"
         id="g2987"
         style="fill:#999999">
        <path
           d="m -21.981795,11.765512 -1.534583,-0.701146 -1.785937,-0.806979 1.058333,-1.6404164 4.722812,2.3812504 -0.912812,1.468437 -1.547813,-0.701146 m -1.971145,0.06615 1.521354,0.833438 -1.997604,3.929062 -1.785938,0.912813 v -1.719792 l 2.262188,-3.955521"
           id="path2983"
           inkscape:connector-curvature="0"
           style="fill:#999999;stroke:none;stroke-width:0.26458332" />
        <path
           d="m -23.95294,11.831658 0.436562,-0.767292 1.534583,0.701146 -0.449791,0.899584 -1.521354,-0.833438"
           id="path2985"
           inkscape:connector-curvature="0"
           style="fill:#999999;stroke:none;stroke-width:0.26458332" />
      </g>
      <g
         id="g2993"
         transform="translate(-3.6153069,9.9420939)"
         style="fill:#999999">
        <path
           style="fill:#999999;stroke:none;stroke-width:0.26458332"
           inkscape:connector-curvature="0"
           id="path2989"
           d="m -21.981795,11.765512 -1.534583,-0.701146 -1.785937,-0.806979 1.058333,-1.6404164 4.722812,2.3812504 -0.912812,1.468437 -1.547813,-0.701146 m -1.971145,0.06615 1.521354,0.833438 -1.997604,3.929062 -1.785938,0.912813 v -1.719792 l 2.262188,-3.955521" />
        <path
           style="fill:#999999;stroke:none;stroke-width:0.26458332"
           inkscape:connector-curvature="0"
           id="path2991"
           d="m -23.95294,11.831658 0.436562,-0.767292 1.534583,0.701146 -0.449791,0.899584 -1.521354,-0.833438" />
      </g>
    </g>
    <g
       id="g2969"
       transform="translate(30.098665,-14.765892)">
      <g
         id="g2937">
        <path
           style="fill:#eeeeee;stroke:none;stroke-width:0.26458332"
           inkscape:connector-curvature="0"
           id="path66"
           d="m -21.981795,11.765512 -1.534583,-0.701146 -1.785937,-0.806979 1.058333,-1.6404164 4.722812,2.3812504 -0.912812,1.468437 -1.547813,-0.701146 m -1.971145,0.06615 1.521354,0.833438 -1.997604,3.929062 -1.785938,0.912813 v -1.719792 l 2.262188,-3.955521" />
        <path
           style="fill:#d9dbdb;stroke:none;stroke-width:0.26458332"
           inkscape:connector-curvature="0"
           id="path68"
           d="m -23.95294,11.831658 0.436562,-0.767292 1.534583,0.701146 -0.449791,0.899584 -1.521354,-0.833438" />
      </g>
      <g
         transform="translate(4.4545745,5.2292831)"
         id="g2943">
        <path
           d="m -21.981795,11.765512 -1.534583,-0.701146 -1.785937,-0.806979 1.058333,-1.6404164 4.722812,2.3812504 -0.912812,1.468437 -1.547813,-0.701146 m -1.971145,0.06615 1.521354,0.833438 -1.997604,3.929062 -1.785938,0.912813 v -1.719792 l 2.262188,-3.955521"
           id="path2939"
           inkscape:connector-curvature="0"
           style="fill:#eeeeee;stroke:none;stroke-width:0.26458332" />
        <path
           d="m -23.95294,11.831658 0.436562,-0.767292 1.534583,0.701146 -0.449791,0.899584 -1.521354,-0.833438"
           id="path2941"
           inkscape:connector-curvature="0"
           style="fill:#d9dbdb;stroke:none;stroke-width:0.26458332" />
      </g>
      <g
         id="g2949"
         transform="translate(-8.0053224,3.0342754)">
        <path
           style="fill:#eeeeee;stroke:none;stroke-width:0.26458332"
           inkscape:connector-curvature="0"
           id="path2945"
           d="m -21.981795,11.765512 -1.534583,-0.701146 -1.785937,-0.806979 1.058333,-1.6404164 4.722812,2.3812504 -0.912812,1.468437 -1.547813,-0.701146 m -1.971145,0.06615 1.521354,0.833438 -1.997604,3.929062 -1.785938,0.912813 v -1.719792 l 2.262188,-3.955521" />
        <path
           style="fill:#d9dbdb;stroke:none;stroke-width:0.26458332"
           inkscape:connector-curvature="0"
           id="path2947"
           d="m -23.95294,11.831658 0.436562,-0.767292 1.534583,0.701146 -0.449791,0.899584 -1.521354,-0.833438" />
      </g>
      <g
         transform="translate(-3.6153069,9.9420939)"
         id="g2955">
        <path
           d="m -21.981795,11.765512 -1.534583,-0.701146 -1.785937,-0.806979 1.058333,-1.6404164 4.722812,2.3812504 -0.912812,1.468437 -1.547813,-0.701146 m -1.971145,0.06615 1.521354,0.833438 -1.997604,3.929062 -1.785938,0.912813 v -1.719792 l 2.262188,-3.955521"
           id="path2951"
           inkscape:connector-curvature="0"
           style="fill:#eeeeee;stroke:none;stroke-width:0.26458332" />
        <path
           d="m -23.95294,11.831658 0.436562,-0.767292 1.534583,0.701146 -0.449791,0.899584 -1.521354,-0.833438"
           id="path2953"
           inkscape:connector-curvature="0"
           style="fill:#d9dbdb;stroke:none;stroke-width:0.26458332" />
      </g>
    </g>
  </g>
</svg>
