<?xml version="1.0" encoding="UTF-8" standalone="no"?>
<!-- Created with Inkscape (http://www.inkscape.org/) -->

<svg
   xmlns:dc="http://purl.org/dc/elements/1.1/"
   xmlns:cc="http://creativecommons.org/ns#"
   xmlns:rdf="http://www.w3.org/1999/02/22-rdf-syntax-ns#"
   xmlns:svg="http://www.w3.org/2000/svg"
   xmlns="http://www.w3.org/2000/svg"
   xmlns:sodipodi="http://sodipodi.sourceforge.net/DTD/sodipodi-0.dtd"
   xmlns:inkscape="http://www.inkscape.org/namespaces/inkscape"
   width="96"
   height="96"
   viewBox="0 0 25.399999 25.400002"
   version="1.1"
   id="svg2289"
   inkscape:version="0.92.4 (unknown)"
   sodipodi:docname="tool0.svg">
  <defs
     id="defs2283" />
  <sodipodi:namedview
     id="base"
     pagecolor="#ffffff"
     bordercolor="#666666"
     borderopacity="1.0"
     inkscape:pageopacity="0.0"
     inkscape:pageshadow="2"
     inkscape:zoom="4.0983151"
     inkscape:cx="11.264712"
     inkscape:cy="10.943902"
     inkscape:document-units="mm"
     inkscape:current-layer="layer1"
     showgrid="false"
     fit-margin-top="0"
     fit-margin-left="0"
     fit-margin-right="0"
     fit-margin-bottom="0"
     inkscape:window-width="1920"
     inkscape:window-height="1032"
     inkscape:window-x="0"
     inkscape:window-y="24"
     inkscape:window-maximized="1"
     units="px" />
  <metadata
     id="metadata2286">
    <rdf:RDF>
      <cc:Work
         rdf:about="">
        <dc:format>image/svg+xml</dc:format>
        <dc:type
           rdf:resource="http://purl.org/dc/dcmitype/StillImage" />
        <dc:title></dc:title>
      </cc:Work>
    </rdf:RDF>
  </metadata>
  <g
     inkscape:label="Layer 1"
     inkscape:groupmode="layer"
     id="layer1"
     transform="translate(7.2448584,9.432872)">
    <g
       id="g2866"
       transform="matrix(1.0580521,0,0,1.0580521,6.2549786,-3.0370988)">
      <path
         d="m -4.8768376,6.6537943 3.81,-9.2339589 q 0.78052092,-2.1695833 3.3469792,-1.1377083 l 3.452812,1.3096875 -0.489479,1.2170834 -1.600729,-0.5820834 -1.4552082,-0.5953125 Q 0.36191242,-3.096102 -0.22017088,-1.6408937 l -3.49250002,8.810625 -1.1641667,-0.515937"
         id="path118"
         inkscape:connector-curvature="0"
         style="fill:#eeeeee;stroke:none;stroke-width:0.26458332" />
      <path
         d="m 5.2434746,-1.191102 h 0.01323 l -1.680104,0.75406254 0.198438,2.14312496 v 0.013229 l -1.4684387,0.5291668 -0.026458,2.3944792 -1.78593748,1.0583333 -0.0132292,2.4473955 -1.71979162,0.992188 0.052917,1.6801037 -1.3096875,-0.595312 6.1383332,-11.9988544 1.600729,0.5820834"
         id="path120"
         inkscape:connector-curvature="0"
         style="fill:#d9dbdb;stroke:none;stroke-width:0.26458332" />
      <path
         d="m -1.1859001,10.820981 1.12447922,0.502708 -0.99218752,1.296459 -3.5321875,-1.336146 -0.9657292,2.156354 2.9897917,1.150938 -1.0583333,1.375833 -3.6247917,-1.455208 1.7330208,-8.1359377 0.635,0.277813 1.1641667,0.515937 0.8598958,0.383646 -0.9525,2.090208 1.3096875,0.5820837 1.3096875,0.595312"
         id="path122"
         inkscape:connector-curvature="0"
         style="fill:#e26231;stroke:none;stroke-width:0.26458332" />
    </g>
  </g>
</svg>
