<?xml version="1.0" encoding="UTF-8" standalone="no"?>
<!-- Created with Inkscape (http://www.inkscape.org/) -->

<svg
   xmlns:dc="http://purl.org/dc/elements/1.1/"
   xmlns:cc="http://creativecommons.org/ns#"
   xmlns:rdf="http://www.w3.org/1999/02/22-rdf-syntax-ns#"
   xmlns:svg="http://www.w3.org/2000/svg"
   xmlns="http://www.w3.org/2000/svg"
   xmlns:sodipodi="http://sodipodi.sourceforge.net/DTD/sodipodi-0.dtd"
   xmlns:inkscape="http://www.inkscape.org/namespaces/inkscape"
   width="96"
   height="96"
   viewBox="0 0 25.399999 25.400002"
   version="1.1"
   id="svg2289"
   inkscape:version="0.92.4 (unknown)"
   sodipodi:docname="tool3.svg">
  <defs
     id="defs2283" />
  <sodipodi:namedview
     id="base"
     pagecolor="#ffffff"
     bordercolor="#666666"
     borderopacity="1.0"
     inkscape:pageopacity="0.0"
     inkscape:pageshadow="2"
     inkscape:zoom="4.0983151"
     inkscape:cx="-25.091692"
     inkscape:cy="10.455897"
     inkscape:document-units="mm"
     inkscape:current-layer="layer1"
     showgrid="false"
     fit-margin-top="0"
     fit-margin-left="0"
     fit-margin-right="0"
     fit-margin-bottom="0"
     inkscape:window-width="1920"
     inkscape:window-height="1032"
     inkscape:window-x="0"
     inkscape:window-y="24"
     inkscape:window-maximized="1"
     units="px" />
  <metadata
     id="metadata2286">
    <rdf:RDF>
      <cc:Work
         rdf:about="">
        <dc:format>image/svg+xml</dc:format>
        <dc:type
           rdf:resource="http://purl.org/dc/dcmitype/StillImage" />
        <dc:title></dc:title>
      </cc:Work>
    </rdf:RDF>
  </metadata>
  <g
     inkscape:label="Layer 1"
     inkscape:groupmode="layer"
     id="layer1"
     transform="translate(7.2448584,9.432872)">
    <g
       transform="matrix(0.41298036,0,0,0.41298036,-74.42443,-14.347374)"
       id="g3818">
      <path
         d="m 216.85,42.35 -11.25,-14.5 0.05,-0.05 -0.8,-1 0.75,-0.95 12.3,15.85 -1.05,0.65 M 197.6,20 196.2,21.8 178.05,19 v -2 l 19.55,3"
         id="path1242"
         inkscape:connector-curvature="0"
         style="fill:#d4d9ec;stroke:none" />
      <path
         d="m 204.85,26.8 -3.7,4.7 -1,1.3 -1.4,-1.15 -4.65,-3.8 -1.65,-1.35 1.25,-1.6 2.5,-3.1 1.4,0.2 0.75,-1 7.3,4.85 h -0.05 l -0.75,0.95"
         id="path1244"
         inkscape:connector-curvature="0"
         style="fill:#d6daec;stroke:none" />
      <path
         d="m 197.6,20 0.75,-1 8.3,5.5 -1,1.3 v 0.05 l -7.3,-4.85 -0.75,1 -1.4,-0.2 1.4,-1.8"
         id="path1246"
         inkscape:connector-curvature="0"
         style="fill:#ffffff;stroke:none" />
      <path
         d="m 204.85,26.8 0.8,1 -0.05,0.05 11.25,14.5 -2.3,1.3 -13.4,-12.15 3.7,-4.7 m -26.8,-7.8 18.15,2.8 -2.5,3.1 -15.65,-4.55 V 19"
         id="path1248"
         inkscape:connector-curvature="0"
         style="fill:#c7cce0;stroke:none" />
      <path
         d="m 197,34.2 -1.75,-1.5 -2.95,-2.65 1.8,-2.2 4.65,3.8 -1.75,2.55"
         id="path1250"
         inkscape:connector-curvature="0"
         style="fill:#aa753e;stroke:none" />
      <path
         d="m 197,34.2 -4.75,7.1 -1.35,-2.05 4.35,-6.55 1.75,1.5 m -14.6,8.05 2,1.65 -14.65,19.85 -2.75,-2.7 15.4,-18.8"
         id="path1252"
         inkscape:connector-curvature="0"
         style="fill:#c2874a;stroke:none" />
      <path
         d="m 182.4,42.25 9.9,-12.2 2.95,2.65 -4.35,6.55 1.35,2.05 -17.95,26.85 -4.55,-4.4 14.65,-19.85 -2,-1.65"
         id="path1254"
         inkscape:connector-curvature="0"
         style="fill:#b47b41;stroke:none" />
    </g>
  </g>
</svg>
